<?xml version="1.0" standalone="no"?>
<!DOCTYPE svg PUBLIC "-//W3C//DTD SVG 20010904//EN"
 "http://www.w3.org/TR/2001/REC-SVG-20010904/DTD/svg10.dtd">
<svg version="1.0" xmlns="http://www.w3.org/2000/svg"
 width="64.000000pt" height="64.000000pt" viewBox="0 0 64.000000 64.000000"
 preserveAspectRatio="xMidYMid meet">

<g transform="translate(0.000000,64.000000) scale(0.100000,-0.100000)"
fill="#000000" stroke="none">
<path d="M254 607 c-33 -49 -38 -96 -14 -149 39 -89 124 -90 171 -3 25 46 20
102 -14 152 -20 30 -27 33 -72 33 -45 0 -52 -3 -71 -33z"/>
<path d="M190 367 c-43 -15 -89 -79 -101 -138 -4 -24 -8 -74 -9 -111 0 -75 10
-88 69 -88 25 0 31 4 32 23 0 15 2 17 6 7 10 -24 36 -39 66 -40 15 0 27 -4 27
-10 0 -5 18 -10 40 -10 22 0 40 4 40 9 0 6 15 11 33 13 22 2 35 10 42 26 12
27 25 29 25 2 0 -16 7 -20 33 -20 63 0 71 14 64 124 -4 80 -10 104 -32 141
-41 70 -62 80 -190 82 -69 2 -123 -2 -145 -10z"/>
</g>
</svg>
