<?xml version="1.0" standalone="no"?>
<!DOCTYPE svg PUBLIC "-//W3C//DTD SVG 20010904//EN"
 "http://www.w3.org/TR/2001/REC-SVG-20010904/DTD/svg10.dtd">
<svg version="1.0" xmlns="http://www.w3.org/2000/svg"
 width="64.000000pt" height="46.000000pt" viewBox="0 0 64.000000 46.000000"
 preserveAspectRatio="xMidYMid meet">

<g transform="translate(0.000000,46.000000) scale(0.100000,-0.100000)"
fill="#000000" stroke="none">
<path d="M527 422 c-10 -11 -46 -75 -80 -143 l-62 -124 -138 -3 c-125 -2 -138
-4 -135 -20 2 -9 14 -18 26 -20 22 -3 23 -5 7 -22 -33 -36 12 -93 55 -70 23
12 27 59 8 78 -9 9 4 12 61 12 66 0 71 -1 57 -16 -30 -30 -13 -74 29 -74 43 0
62 54 29 81 -15 12 -14 14 7 19 19 4 37 32 90 140 59 121 68 136 95 140 39 7
38 34 -2 38 -20 2 -36 -4 -47 -16z"/>
<path d="M47 393 c-14 -14 -6 -46 33 -123 22 -43 49 -84 59 -90 11 -5 62 -10
114 -10 76 0 99 3 115 17 27 24 96 178 89 197 -6 14 -34 16 -205 16 -109 0
-202 -3 -205 -7z m363 -40 c0 -5 -15 -37 -33 -73 l-32 -65 -95 0 -95 0 -38 73
-38 72 166 0 c91 0 165 -3 165 -7z"/>
</g>
</svg>
