<?xml version="1.0" standalone="no"?>
<!DOCTYPE svg PUBLIC "-//W3C//DTD SVG 20010904//EN"
 "http://www.w3.org/TR/2001/REC-SVG-20010904/DTD/svg10.dtd">
<svg version="1.0" xmlns="http://www.w3.org/2000/svg"
 width="64.000000pt" height="64.000000pt" viewBox="0 0 64.000000 64.000000"
 preserveAspectRatio="xMidYMid meet">

<g transform="translate(0.000000,64.000000) scale(0.100000,-0.100000)"
fill="#000000" stroke="none">
<path d="M41 527 c-24 -26 -20 -51 10 -67 10 -6 128 -10 276 -10 218 0 262 2
281 16 27 19 28 38 2 64 -19 19 -33 20 -283 20 -263 0 -264 0 -286 -23z"/>
<path d="M37 352 c-22 -24 -21 -35 1 -55 16 -15 51 -17 290 -17 233 0 273 2
286 16 20 20 20 38 0 58 -13 14 -54 16 -288 16 -252 0 -274 -1 -289 -18z"/>
<path d="M42 184 c-27 -18 -28 -36 -4 -57 16 -15 51 -17 290 -17 233 0 273 2
286 16 21 20 20 37 -2 57 -16 15 -51 17 -283 17 -223 0 -268 -2 -287 -16z"/>
</g>
</svg>
