<?xml version="1.0" standalone="no"?>
<!DOCTYPE svg PUBLIC "-//W3C//DTD SVG 20010904//EN"
 "http://www.w3.org/TR/2001/REC-SVG-20010904/DTD/svg10.dtd">
<svg version="1.0" xmlns="http://www.w3.org/2000/svg"
 width="64.000000pt" height="64.000000pt" viewBox="0 0 64.000000 64.000000"
 preserveAspectRatio="xMidYMid meet">

<g transform="translate(0.000000,64.000000) scale(0.100000,-0.100000)"
fill="#000000" stroke="none">
<path d="M145 616 c-89 -42 -144 -127 -145 -221 0 -92 67 -194 152 -229 52
-22 143 -20 197 4 56 26 61 25 61 -8 0 -38 123 -162 161 -162 32 0 69 38 69
71 0 35 -126 159 -161 159 -37 0 -39 5 -13 57 18 34 24 63 24 107 -1 78 -24
130 -83 182 -77 68 -172 82 -262 40z m213 -69 c80 -56 102 -180 46 -258 -108
-154 -344 -82 -344 104 0 80 33 133 105 172 47 25 143 16 193 -18z"/>
<path d="M106 444 c-3 -9 -6 -38 -6 -64 0 -41 5 -55 31 -85 39 -44 93 -60 149
-44 46 14 53 29 13 29 -43 1 -108 34 -133 69 -12 18 -24 50 -27 71 -6 42 -17
51 -27 24z"/>
</g>
</svg>
